<svg xmlns="http://www.w3.org/2000/svg" xmlns:xlink="http://www.w3.org/1999/xlink" width="200" zoomAndPan="magnify" viewBox="0 0 150 149.999998" height="200" preserveAspectRatio="xMidYMid meet" version="1.0"><defs><clipPath id="ec25d13506"><path d="M 29 38.625 L 113 38.625 L 113 101 L 29 101 Z M 29 38.625 " clip-rule="nonzero"/></clipPath></defs><rect x="-15" width="180" fill="#ffffff" y="-15" height="179.999997" fill-opacity="1"/><rect x="-15" width="180" fill="#ffffff" y="-15" height="179.999997" fill-opacity="1"/><path fill="#3267e8" d="M 137.007812 53.34375 L 114.011719 53.34375 L 105.230469 100.945312 L 111.121094 100.945312 C 111.378906 99.683594 111.804688 98.484375 112.40625 97.347656 C 113.148438 95.914062 114.128906 94.671875 115.355469 93.621094 C 116.578125 92.566406 117.957031 91.78125 119.484375 91.261719 C 120.976562 90.734375 122.515625 90.53125 124.097656 90.648438 C 125.679688 90.761719 127.167969 91.191406 128.570312 91.933594 C 129.402344 92.382812 130.164062 92.925781 130.859375 93.558594 C 131.554688 94.195312 132.164062 94.90625 132.6875 95.691406 C 133.210938 96.476562 133.628906 97.316406 133.945312 98.203125 C 134.261719 99.089844 134.46875 100.003906 134.558594 100.945312 L 142.976562 100.945312 L 149.941406 72.914062 Z M 116.882812 70.371094 L 119.101562 58.296875 L 133.71875 58.296875 L 141.695312 70.351562 Z M 116.882812 70.371094 " fill-opacity="1" fill-rule="nonzero"/><path fill="#3267e8" d="M 126.792969 95.320312 C 125.695312 94.742188 124.527344 94.457031 123.289062 94.457031 C 122.414062 94.457031 121.558594 94.597656 120.726562 94.878906 C 119.65625 95.246094 118.695312 95.796875 117.839844 96.535156 C 116.984375 97.273438 116.292969 98.144531 115.773438 99.144531 C 115.566406 99.617188 115.40625 100.101562 115.296875 100.601562 C 115.183594 101.101562 115.121094 101.609375 115.109375 102.125 C 115.09375 102.636719 115.128906 103.144531 115.214844 103.652344 C 115.300781 104.15625 115.433594 104.652344 115.613281 105.132812 C 115.796875 105.613281 116.019531 106.070312 116.289062 106.507812 C 116.558594 106.945312 116.867188 107.351562 117.21875 107.726562 C 117.566406 108.105469 117.945312 108.445312 118.359375 108.746094 C 118.773438 109.050781 119.214844 109.308594 119.679688 109.527344 C 120.144531 109.746094 120.625 109.917969 121.125 110.042969 C 121.621094 110.167969 122.125 110.242188 122.640625 110.269531 C 123.152344 110.296875 123.660156 110.273438 124.171875 110.199219 C 124.679688 110.128906 125.175781 110.007812 125.660156 109.839844 C 126.144531 109.671875 126.609375 109.457031 127.050781 109.199219 C 127.496094 108.941406 127.910156 108.644531 128.296875 108.304688 C 128.679688 107.964844 129.03125 107.59375 129.34375 107.1875 C 129.660156 106.78125 129.929688 106.347656 130.160156 105.890625 C 130.390625 105.429688 130.574219 104.953125 130.710938 104.460938 C 130.847656 103.964844 130.9375 103.460938 130.976562 102.949219 C 131.015625 102.4375 131.007812 101.925781 130.949219 101.417969 C 130.886719 100.90625 130.78125 100.410156 130.625 99.917969 C 130.46875 99.429688 130.269531 98.960938 130.023438 98.511719 C 129.773438 98.0625 129.488281 97.636719 129.160156 97.246094 C 128.828125 96.851562 128.464844 96.492188 128.070312 96.167969 C 127.671875 95.84375 127.246094 95.558594 126.792969 95.320312 Z M 126.792969 95.320312 " fill-opacity="1" fill-rule="nonzero"/><path fill="#3267e8" d="M 64 95.320312 C 62.902344 94.742188 61.734375 94.457031 60.496094 94.457031 C 59.621094 94.457031 58.765625 94.597656 57.933594 94.878906 C 56.863281 95.246094 55.902344 95.796875 55.046875 96.535156 C 54.1875 97.273438 53.5 98.144531 52.976562 99.144531 C 52.773438 99.617188 52.613281 100.101562 52.503906 100.601562 C 52.390625 101.101562 52.328125 101.609375 52.3125 102.125 C 52.300781 102.636719 52.335938 103.144531 52.421875 103.652344 C 52.507812 104.15625 52.640625 104.652344 52.820312 105.132812 C 53 105.613281 53.226562 106.070312 53.496094 106.507812 C 53.765625 106.945312 54.074219 107.351562 54.421875 107.726562 C 54.773438 108.105469 55.152344 108.445312 55.566406 108.746094 C 55.980469 109.050781 56.421875 109.308594 56.886719 109.527344 C 57.351562 109.746094 57.832031 109.917969 58.332031 110.042969 C 58.828125 110.167969 59.332031 110.242188 59.847656 110.269531 C 60.359375 110.296875 60.867188 110.273438 61.375 110.199219 C 61.886719 110.128906 62.382812 110.007812 62.867188 109.839844 C 63.351562 109.671875 63.816406 109.457031 64.257812 109.199219 C 64.703125 108.941406 65.117188 108.644531 65.503906 108.304688 C 65.886719 107.964844 66.238281 107.59375 66.550781 107.1875 C 66.863281 106.78125 67.136719 106.347656 67.367188 105.890625 C 67.597656 105.429688 67.78125 104.953125 67.917969 104.460938 C 68.054688 103.964844 68.144531 103.460938 68.183594 102.949219 C 68.222656 102.4375 68.214844 101.925781 68.152344 101.417969 C 68.09375 100.90625 67.988281 100.410156 67.832031 99.917969 C 67.675781 99.429688 67.476562 98.960938 67.226562 98.511719 C 66.980469 98.0625 66.695312 97.636719 66.363281 97.246094 C 66.035156 96.851562 65.671875 96.492188 65.273438 96.167969 C 64.878906 95.84375 64.453125 95.558594 64 95.320312 Z M 64 95.320312 " fill-opacity="1" fill-rule="nonzero"/><g clip-path="url(#ec25d13506)"><path fill="#3267e8" d="M 40.695312 38.722656 L 39.050781 47.699219 L 44.828125 47.699219 C 45.082031 47.699219 45.324219 47.746094 45.558594 47.84375 C 45.792969 47.941406 46 48.078125 46.179688 48.257812 C 46.359375 48.4375 46.5 48.644531 46.59375 48.878906 C 46.691406 49.113281 46.742188 49.355469 46.742188 49.609375 C 46.742188 49.863281 46.691406 50.109375 46.59375 50.34375 C 46.5 50.578125 46.359375 50.785156 46.179688 50.964844 C 46 51.144531 45.792969 51.28125 45.558594 51.378906 C 45.324219 51.476562 45.082031 51.523438 44.828125 51.523438 L 38.34375 51.523438 L 36.90625 59.367188 L 52.195312 59.367188 C 52.449219 59.367188 52.691406 59.417969 52.925781 59.515625 C 53.160156 59.613281 53.367188 59.75 53.546875 59.929688 C 53.726562 60.109375 53.863281 60.316406 53.960938 60.550781 C 54.058594 60.785156 54.105469 61.027344 54.105469 61.28125 C 54.105469 61.535156 54.058594 61.78125 53.960938 62.015625 C 53.863281 62.25 53.726562 62.457031 53.546875 62.632812 C 53.367188 62.8125 53.160156 62.953125 52.925781 63.050781 C 52.691406 63.148438 52.449219 63.195312 52.195312 63.195312 L 36.199219 63.195312 L 34.898438 70.234375 L 45.6875 70.234375 C 45.941406 70.234375 46.1875 70.285156 46.421875 70.382812 C 46.65625 70.480469 46.863281 70.617188 47.042969 70.796875 C 47.222656 70.976562 47.359375 71.183594 47.457031 71.417969 C 47.554688 71.652344 47.601562 71.894531 47.601562 72.148438 C 47.601562 72.402344 47.554688 72.648438 47.457031 72.882812 C 47.359375 73.117188 47.222656 73.324219 47.042969 73.503906 C 46.863281 73.679688 46.65625 73.820312 46.421875 73.917969 C 46.1875 74.015625 45.941406 74.0625 45.6875 74.0625 L 34.210938 74.0625 L 33.082031 80.164062 L 38.878906 80.164062 C 39.132812 80.164062 39.375 80.214844 39.609375 80.3125 C 39.84375 80.410156 40.050781 80.546875 40.230469 80.726562 C 40.410156 80.90625 40.546875 81.113281 40.644531 81.347656 C 40.742188 81.582031 40.789062 81.824219 40.789062 82.078125 C 40.789062 82.332031 40.742188 82.578125 40.644531 82.8125 C 40.546875 83.046875 40.410156 83.253906 40.230469 83.433594 C 40.050781 83.613281 39.84375 83.75 39.609375 83.847656 C 39.375 83.945312 39.132812 83.992188 38.878906 83.992188 L 32.390625 83.992188 L 29.292969 100.945312 L 48.328125 100.945312 C 48.585938 99.683594 49.011719 98.484375 49.609375 97.347656 C 50.355469 95.914062 51.335938 94.671875 52.5625 93.621094 C 53.785156 92.566406 55.160156 91.78125 56.691406 91.261719 C 58.1875 90.734375 59.730469 90.53125 61.3125 90.648438 C 62.898438 90.765625 64.390625 91.191406 65.796875 91.933594 C 66.625 92.382812 67.386719 92.929688 68.078125 93.566406 C 68.773438 94.203125 69.382812 94.914062 69.902344 95.699219 C 70.425781 96.484375 70.84375 97.320312 71.164062 98.207031 C 71.480469 99.09375 71.6875 100.007812 71.785156 100.945312 L 101.34375 100.945312 L 112.769531 38.722656 Z M 40.695312 38.722656 " fill-opacity="1" fill-rule="nonzero"/></g><path fill="#3267e8" d="M 39.050781 47.699219 L 38.34375 51.523438 L 22.175781 51.523438 C 21.921875 51.523438 21.675781 51.476562 21.441406 51.378906 C 21.207031 51.28125 21 51.144531 20.820312 50.964844 C 20.640625 50.785156 20.503906 50.578125 20.40625 50.34375 C 20.308594 50.109375 20.261719 49.863281 20.261719 49.609375 C 20.261719 49.355469 20.308594 49.113281 20.40625 48.878906 C 20.503906 48.644531 20.640625 48.4375 20.820312 48.257812 C 21 48.078125 21.207031 47.941406 21.441406 47.84375 C 21.675781 47.746094 21.921875 47.699219 22.175781 47.699219 Z M 39.050781 47.699219 " fill-opacity="1" fill-rule="nonzero"/><path fill="#3267e8" d="M 36.90625 59.367188 L 36.199219 63.195312 L 1.816406 63.195312 C 1.5625 63.195312 1.320312 63.148438 1.085938 63.050781 C 0.851562 62.953125 0.644531 62.8125 0.464844 62.636719 C 0.285156 62.457031 0.148438 62.25 0.0507812 62.015625 C -0.046875 61.78125 -0.09375 61.535156 -0.09375 61.28125 C -0.09375 61.027344 -0.046875 60.785156 0.0507812 60.550781 C 0.148438 60.316406 0.285156 60.109375 0.464844 59.929688 C 0.644531 59.75 0.851562 59.613281 1.085938 59.515625 C 1.320312 59.417969 1.5625 59.367188 1.816406 59.367188 Z M 36.90625 59.367188 " fill-opacity="1" fill-rule="nonzero"/><path fill="#3267e8" d="M 34.898438 70.234375 L 34.210938 74.0625 L 10.160156 74.0625 C 9.90625 74.0625 9.660156 74.015625 9.425781 73.917969 C 9.191406 73.820312 8.984375 73.679688 8.804688 73.503906 C 8.628906 73.324219 8.488281 73.117188 8.390625 72.882812 C 8.292969 72.648438 8.246094 72.402344 8.246094 72.148438 C 8.246094 71.894531 8.292969 71.652344 8.390625 71.417969 C 8.488281 71.183594 8.628906 70.976562 8.804688 70.796875 C 8.984375 70.617188 9.191406 70.480469 9.425781 70.382812 C 9.660156 70.285156 9.90625 70.234375 10.160156 70.234375 Z M 34.898438 70.234375 " fill-opacity="1" fill-rule="nonzero"/><path fill="#3267e8" d="M 33.082031 80.164062 L 32.71875 82.15625 C 32.714844 82.246094 32.699219 82.335938 32.679688 82.421875 L 32.390625 83.992188 L 20.28125 83.992188 C 20.027344 83.992188 19.78125 83.945312 19.546875 83.847656 C 19.3125 83.75 19.105469 83.613281 18.925781 83.433594 C 18.75 83.253906 18.609375 83.046875 18.511719 82.8125 C 18.414062 82.578125 18.367188 82.332031 18.367188 82.078125 C 18.367188 81.824219 18.414062 81.582031 18.511719 81.347656 C 18.609375 81.113281 18.75 80.90625 18.925781 80.726562 C 19.105469 80.546875 19.3125 80.410156 19.546875 80.3125 C 19.78125 80.214844 20.027344 80.164062 20.28125 80.164062 Z M 33.082031 80.164062 " fill-opacity="1" fill-rule="nonzero"/></svg>